<svg id="Capa_1" enable-background="new 0 0 512.011 512.011" height="512" viewBox="0 0 512.011 512.011" width="512" xmlns="http://www.w3.org/2000/svg"><g><path d="m505.322 158.427-52.025-52.026c-7.814-7.814-21.137-4.762-24.771 5.671-5.255 15.081-24.752 19.879-36.345 8.286-11.515-11.517-6.868-31.063 8.285-36.345 10.437-3.635 13.485-16.958 5.672-24.771l-52.553-52.551c-8.913-8.917-23.399-8.924-32.317-.002l-38.837 38.836c-19.995-20.943-53.674-21.398-74.306-.768-20.424 20.423-20.385 53.955.768 74.307l-89.302 89.302c-20.335-21.136-53.861-21.212-74.307-.768-20.616 20.615-20.187 54.225.768 74.306l-39.361 39.362c-8.917 8.913-8.924 23.399-.002 32.317l39.363 39.364c-20.943 19.995-21.4 53.675-.768 74.306 20.614 20.614 54.224 20.187 74.306-.768l38.835 38.834c8.913 8.917 23.399 8.924 32.317.002l52.554-52.553c7.815-7.815 4.762-21.137-5.671-24.771-15.147-5.278-19.808-24.823-8.287-36.345 11.497-11.497 31.056-6.893 36.345 8.286 3.635 10.434 16.959 13.485 24.771 5.671l115.683-115.683c7.814-7.814 4.763-21.137-5.672-24.771-15.145-5.279-19.807-24.823-8.285-36.345 11.608-11.608 31.094-6.783 36.345 8.287 3.635 10.434 16.959 13.485 24.771 5.671l52.025-52.026c8.917-8.913 8.922-23.398.001-32.315zm-222.891 212.779c-20.069-20.941-53.595-21.479-74.306-.767-20.42 20.42-20.39 53.949.768 74.306l-34.308 34.308-46.972-46.97c-7.834-7.834-21.144-4.735-24.771 5.671-5.288 15.171-24.841 19.79-36.345 8.286-11.496-11.496-6.894-31.054 8.286-36.345 10.437-3.638 13.483-16.959 5.671-24.771l-47.497-47.499 47.497-47.498c7.815-7.815 4.762-21.135-5.671-24.771-15.171-5.288-19.79-24.841-8.286-36.345 11.518-11.515 31.062-6.873 36.345 8.287 3.635 10.434 16.959 13.485 24.771 5.671l46.972-46.971 34.308 34.308c-21.134 20.334-21.213 53.862-.768 74.307 20.539 20.539 53.982 20.357 74.307-.768l33.78 33.781zm162.842-162.84c-20.335-21.136-53.861-21.212-74.306-.768-20.614 20.613-20.188 54.225.767 74.306l-34.309 34.309-46.971-46.971c-7.665-7.665-21.074-4.944-24.771 5.671-5.33 15.3-24.929 19.697-36.345 8.287-11.496-11.496-6.894-31.055 8.287-36.345 10.436-3.636 13.483-16.959 5.671-24.771l-47.498-47.498 47.498-47.499c7.815-7.815 4.762-21.137-5.671-24.771-15.172-5.286-19.791-24.841-8.287-36.345 11.498-11.495 31.054-6.895 36.345 8.286 3.638 10.436 16.959 13.485 24.771 5.671l46.972-46.97 34.309 34.308c-21.135 20.334-21.211 53.862-.768 74.306 20.615 20.614 54.218 20.19 74.306-.768l33.78 33.782z"/></g></svg>