<svg height="512" viewBox="0 0 60 52" width="512" xmlns="http://www.w3.org/2000/svg"><g id="010---Internet-Security" transform="translate(-1)"><path id="Shape" d="m54 29c1.6568542 0 3-1.3431458 3-3s-1.3431458-3-3-3-3 1.3431458-3 3 1.3431458 3 3 3zm0-4c.5522847 0 1 .4477153 1 1s-.4477153 1-1 1-1-.4477153-1-1 .4477153-1 1-1z"/><path id="Shape" d="m27 52c9.4821407-.0422358 18.1991896-5.211862 22.784-13.512.0298305-.0454884.0552779-.0937044.076-.144.4127363-.7618883.7865501-1.5442274 1.12-2.344h.02c5.4031955-.0323299 9.8170525-4.3248059 10-9.725.0720277-2.698853-.9493975-5.3123262-2.8323876-7.2470985-1.8829901-1.9347722-4.4677987-3.0267044-7.1676124-3.0279015h-.02c-.333419-.800112-.7072332-1.5827855-1.12-2.345-.0207884-.0497596-.0458837-.0976082-.075-.143-6.0990471-11.12559023-19.3390657-16.22232834-31.3239115-12.05812309-11.98484574 4.16420525-19.21215108 16.37243559-17.09872772 28.88285429 2.11342336 12.5104186 12.94996332 21.6670682 25.63763922 21.6632688zm-20.158-13h7.98c1.0108018 3.7821039 2.9525132 7.250919 5.648 10.09-5.6154139-1.6004981-10.458349-5.1861465-13.628-10.09zm-1.162-24h8.592c-.7854226 3.2770213-1.2076333 6.6305611-1.259 10h-9.988c.14221707-3.4875097 1.04856269-6.9012408 2.655-10zm20.32 15v7h-9.613c-.8506186-3.2675118-1.3118216-6.6241565-1.374-10h10.987zm0 9v10.906c-3.726-.649-7.028-4.875-9.019-10.906zm2 10.907v-10.907h9.042c-1.997 6.088-5.323 10.267-9.042 10.907zm0-12.907v-6h2c.2651948-.0000566.5195073-.1054506.707-.293l1.293-1.293 1.292 1.293c.3904999.3903819 1.0235001.3903819 1.414 0l1.294-1.293 1.293 1.293c.1874927.1875494.4418052.2929434.707.293h.719c-.2133268 2.0242927-.5773364 4.0298555-1.089 6zm0-22h9.629c.5119399 1.9700837.8759533 3.9756672 1.089 6h-10.718zm0-2v-10.907c3.719.64 7.045 4.819 9.042 10.907zm-2-10.906v10.906h-9.019c1.991-6.031 5.293-10.257 9.019-10.906zm0 12.906v10h-10.987c.0626731-3.375805.5238681-6.7323918 1.374-10zm-12.987 12c.0513667 3.3694389.4735774 6.7229787 1.259 10h-8.592c-1.60643731-3.0987592-2.51278293-6.5124903-2.655-10zm20.464 22.08c2.7026061-2.8343752 4.6537567-6.2994205 5.676-10.08h8c-3.1928147 4.9003354-8.0502475 8.4805433-13.676 10.08zm14.832-12.08h-8.6c.478386-1.9692689.8192086-3.9694297 1.02-5.986l1.628.008c1.424078 2.4277508 3.8026082 4.1455177 6.555 4.734-.19.422-.391.8366667-.603 1.244zm10.691-10.777c-.1002773 3.5740583-2.5599801 6.6476306-6.0251498 7.5288501-3.4651696.8812195-7.0943556-.6439013-8.8898502-3.7358501-.3572191-.6228846-1.0179821-1.0095984-1.736-1.016h-3.936l-1.707-1.707c-.3966954-.3751231-1.0173046-.3751231-1.414 0l-1.292 1.293-1.293-1.293c-.3904999-.3903819-1.0235001-.3903819-1.414 0l-1.707 1.707-1.586-.0000006v-6l14.349.0000006c.7173949-.0077202 1.3770957-.3946381 1.734-1.017 1.4356918-2.4608604 4.0679644-3.9765958 6.917-3.9830006 2.1609404-.0008391 4.2303105.872558 5.7371799 2.4214314s2.3230565 3.6414683 2.2628201 5.8015692zm-16.651-5.223h-1.622c-.2005542-2.0212876-.5417138-4.0261433-1.021-6h8.6c.2113333.408.4113333.8226667.6 1.244-2.75751.5920858-5.1379084 2.3186641-6.557 4.756zm4.8-8h-7.995c-1.0226729-3.78010963-2.9737779-7.24473036-5.676-10.079 5.6239961 1.59978608 10.4796375 5.17962734 13.671 10.079zm-26.68-10.089c-2.6949801 2.83890642-4.6363334 6.30735215-5.647 10.089h-7.98c3.1695165-4.90334746 8.01207-8.48862098 13.627-10.089z"/></g></svg>